<svg xmlns="http://www.w3.org/2000/svg" width="223.547" height="30.037" viewBox="0 0 223.547 30.037"><path fill-rule="evenodd" clip-rule="evenodd" fill="#B1003B" d="M37.327 2.04l.292 1.17-.44 12.685c1.022-1.166 2.188-2.19 3.5-2.916 1.313-.585 2.334-.876 3.355-.876 2.187 0 3.79.73 4.81 2.04 1.168 1.314 1.75 3.208 1.75 5.687 0 3.064-.728 5.542-2.332 7.437-1.458 1.896-3.354 2.77-5.54 2.77l-2.626-.437c-.73-.29-1.75-.73-2.917-1.457v1.31l-4.227.147-1.896.146-.583-.146-.146-.29.73-.585 3.06-.582L33.974 7l-.146-1.895c-.146-.293-.292-.44-.73-.44l-1.166.44-1.166.29h-.292V5.25l.292-.875 1.458-1.02 2.624-1.314 1.896-.435.585.436zm-.146 15.167l.147 9.186 2.48 2.04c.874.437 1.75.73 2.478.73 1.604 0 2.77-.584 3.646-1.896.73-1.313 1.168-3.207 1.168-5.686 0-2.187-.438-4.083-1.313-5.394-.73-1.313-1.895-2.04-3.5-2.04-.728 0-1.603.144-2.478.583-.877.434-1.75 1.31-2.626 2.477zm19.685-2.625c.874-1.02 2.04-1.604 3.644-1.604 1.457 0 2.623.582 3.353 1.604.73 1.02 1.166 2.48 1.166 4.082l-9.625.438c0-1.895.44-3.354 1.46-4.52zM52.2 21.29c0 2.624.728 4.81 2.187 6.413 1.604 1.605 3.5 2.334 5.832 2.334l3.79-.73c1.02-.438 1.895-1.312 2.915-2.478l.875-1.314.438-1.02-.146-.292-.292-.146-.73.73-.873 1.02-1.897 1.458-2.333.584c-1.896 0-3.5-.73-4.81-2.188-1.313-1.457-1.897-3.354-1.897-5.54h13.123v-.583c0-2.333-.584-4.23-1.896-5.542-1.312-1.313-3.06-2.04-5.394-2.04-2.625 0-4.812.874-6.416 2.624-1.603 1.748-2.478 3.936-2.478 6.707zm16.912-7.292l.146.29.438.147 3.062-.146.146 1.75v11.956l-3.207.73c-.438.144-.73.437-.73.583l.292.29.437.146 1.75-.146h7.873l1.75.146.582-.146.146-.29c0-.294-.438-.585-1.458-.876l-4.23-.438V24.35c0-2.77.44-4.958 1.168-6.562.73-1.748 1.604-2.625 2.624-2.625l1.02.584c.44.438 1.023.582 1.46.582l1.458-.583c.438-.438.584-.875.584-1.604s-.292-1.166-.73-1.46c-.437-.435-1.02-.58-1.748-.58-1.022 0-2.043.58-3.063 1.6-1.02 1.024-1.895 2.626-2.77 4.67v-4.814l-.29-1.167-.44-.438-1.457.438-2.48.73-1.02.292c-.877.146-1.314.29-1.314.583zM7.292 9.04l.436-2.48c.583-2.767 1.167-4.08 1.75-4.08.292 0 .583.292.73.73l.145.29.875.875 1.02.29c.73 0 1.167-.144 1.604-.583.438-.436.584-1.02.584-1.748s-.146-1.313-.584-1.75C13.414.146 12.832 0 12.102 0c-1.02 0-1.896.29-2.624.875-.875.584-1.896 1.75-2.917 3.354-.873 1.31-1.602 2.624-2.04 3.936-.29 1.02-.437 2.48-.582 4.373v2.188H2.916l-2.187-.44v1.897l2.186-.29h1.02l-.145 12.1-3.06.73-.73.584.146.29.583.146 1.895-.146 9.477.146.583-.146.146-.29c0-.294-.437-.585-1.312-.876l-4.228-.438-.29-12.1h1.457l4.375.29V14.29L7 14.73l.29-5.69zm13.412 11.23l1.75.293 2.188.583v4.23c-.73.728-1.604 1.458-2.48 1.894-.728.438-1.603.584-2.478.584-1.02 0-1.75-.29-2.333-.872-.438-.44-.73-1.314-.73-2.625 0-1.313.292-2.334 1.022-3.063.728-.73 1.748-1.022 3.06-1.022zm-3.645-5.104a9.803 9.803 0 0 1 4.082-.875c1.313 0 2.334.292 2.77.728.44.44.584 1.605.584 3.355v1.748l-2.48-.728-2.187-.29c-2.042 0-3.646.583-4.813 1.603-1.167 1.166-1.75 2.625-1.75 4.375 0 1.313.438 2.623 1.313 3.645 1.02.875 2.188 1.313 3.5 1.313.875 0 1.896-.29 3.062-.875l3.354-2.48v1.75c0 .583.146 1.02.438 1.314.146.145.583.29 1.02.29 1.022 0 2.19-.437 3.646-1.458 1.313-1.02 2.042-1.75 2.042-2.48v-.29h-.29l-1.022.728c-.73.584-1.313.875-1.75.875s-.583-.146-.73-.436c-.145-.146-.29-.877-.29-1.896v-9.77c-.146-.58-.292-1.02-.584-1.458l-1.75-1.313-2.626-.583c-1.75 0-3.5.438-5.395 1.46-1.75.872-2.625 1.6-2.625 2.33l.146.147.292.146 2.042-.876zM83.546 29.6l.584.146 4.665-.293 4.812.293.584-.146.147-.29-.73-.585-2.915-.73-.146-24.786-.292-1.314c0-.146-.146-.29-.438-.29l-1.895.435-2.624 1.314-1.313 1.02-.437.876.146.146h.29l2.334-.73c.292 0 .438.146.584.44L87.192 7l-.146 20.996-3.062.73c-.438.144-.583.437-.583.583l.146.29zM95.21 14.29l.438.145 3.063-.146.147 1.75.146 9.77-.292 2.187-2.915.73c-.437.144-.73.29-.73.583l.147.29.583.147 4.812-.293 4.666.293.73-.146.145-.29-.875-.584-2.916-.73-.292-15.163-.146-.875-.293-.146-4.082 1.313-1.166.293c-.73.145-1.168.29-1.168.582v.29zm9.624 7.29c0 2.48.875 4.52 2.48 6.123 1.602 1.605 3.498 2.334 5.685 2.334 1.457 0 2.77-.29 3.79-.73 1.166-.438 2.04-1.165 2.77-2.187l.876-1.313.292-.875v-.438h-.292c-.146 0-.438.145-.73.584l-.582.73c-.73.728-1.313 1.312-1.896 1.456l-2.332.584c-2.188 0-3.938-.873-5.25-2.48-1.313-1.603-2.04-3.644-2.04-6.122 0-1.752.437-3.207 1.456-4.375 1.02-1.02 2.333-1.603 3.938-1.603 1.02 0 1.896.29 2.917.73l2.915 2.042.438 3.206c.146.438.292.73.583.73l.292-.147v-1.605l-.292-2.332.438-4.668-.145-.29h-.292c-.29 0-.583.583-.73 1.75l-.145.292-2.624-.73-2.188-.145c-2.77 0-4.957.875-6.56 2.77-1.897 1.75-2.772 3.94-2.772 6.708z"/><path d="M124.672 22.607h6.64v1.94h-6.64v-1.94zm12.56-11.39V26.82c0 .736.054 1.225.16 1.464.107.24.272.422.495.546s.638.187 1.245.187v.462h-5.766v-.463c.54 0 .907-.056 1.104-.167.196-.11.35-.296.462-.553s.167-.75.167-1.477V16.135c0-1.327-.03-2.143-.09-2.446s-.157-.513-.29-.624-.302-.167-.507-.167c-.223 0-.506.068-.848.205l-.22-.45 3.507-1.438h.58zm7.32 6.151v9.452c0 .736.054 1.227.16 1.47.107.244.266.427.476.546.21.12.593.18 1.15.18v.463h-5.716v-.463c.573 0 .96-.056 1.156-.167.196-.11.353-.296.47-.553.114-.257.172-.75.172-1.477v-4.533c0-1.276-.038-2.103-.115-2.48-.06-.272-.154-.463-.282-.57-.13-.106-.305-.16-.527-.16-.24 0-.53.064-.873.192l-.18-.463 3.545-1.438h.564zm-1.065-6.15c.36 0 .665.125.918.378.253.252.38.56.38.918s-.127.668-.38.925-.56.384-.918.384-.668-.128-.925-.385-.386-.566-.386-.926.127-.666.38-.918c.252-.253.563-.38.93-.38zm7.743 8.642c1.378-1.662 2.692-2.492 3.942-2.492.643 0 1.194.16 1.657.48.46.322.83.85 1.103 1.587.188.514.282 1.302.282 2.363v5.02c0 .746.06 1.25.18 1.517.094.214.246.38.456.5.21.12.598.18 1.163.18v.463h-5.817v-.462h.244c.548 0 .93-.084 1.15-.25.217-.168.37-.414.454-.74.034-.128.052-.53.052-1.206v-4.816c0-1.07-.14-1.847-.417-2.33-.28-.484-.748-.727-1.407-.727-1.02 0-2.034.557-3.044 1.67v6.203c0 .796.046 1.288.14 1.477.12.25.285.43.495.546s.636.174 1.277.174v.462h-5.817v-.463h.257c.6 0 1.004-.152 1.214-.456s.314-.883.314-1.74v-4.365c0-1.413-.032-2.273-.097-2.582-.063-.308-.162-.518-.295-.63s-.31-.166-.533-.166c-.24 0-.526.064-.86.192l-.192-.463 3.544-1.438h.553v2.49zm11.7 2.286c-.01 1.746.415 3.116 1.27 4.11.856.992 1.863 1.49 3.02 1.49.77 0 1.44-.213 2.01-.637s1.046-1.15 1.432-2.178l.397.257c-.18 1.172-.703 2.24-1.567 3.203-.865.963-1.948 1.444-3.25 1.444-1.412 0-2.62-.55-3.627-1.65-1.007-1.1-1.51-2.58-1.51-4.437 0-2.012.517-3.58 1.548-4.707 1.032-1.126 2.326-1.688 3.885-1.688 1.317 0 2.4.435 3.248 1.303.848.87 1.27 2.032 1.27 3.487h-8.128zm0-.746h5.445c-.043-.753-.133-1.284-.27-1.593a2.558 2.558 0 0 0-.957-1.13 2.42 2.42 0 0 0-1.33-.41c-.71 0-1.346.275-1.906.828-.56.552-.888 1.32-.982 2.305zm12.162 5.587c.402 0 .74.14 1.015.417.273.278.41.614.41 1.008 0 .395-.14.73-.417 1.01s-.614.416-1.008.416c-.395 0-.73-.14-1.01-.417s-.416-.613-.416-1.008c0-.402.14-.74.417-1.014.28-.274.615-.41 1.01-.41zm14.101-1.977c-.316 1.55-.938 2.74-1.862 3.576s-1.946 1.252-3.068 1.252c-1.336 0-2.5-.56-3.493-1.683-.994-1.12-1.49-2.637-1.49-4.546 0-1.85.55-3.353 1.65-4.51 1.1-1.154 2.42-1.732 3.96-1.732 1.157 0 2.107.306 2.853.918s1.117 1.248 1.117 1.907c0 .325-.104.59-.314.79s-.503.302-.88.302c-.505 0-.886-.163-1.143-.488-.146-.18-.242-.522-.29-1.027-.047-.505-.22-.89-.52-1.156-.3-.257-.715-.385-1.246-.385-.855 0-1.545.315-2.067.95-.693.838-1.04 1.947-1.04 3.325 0 1.404.345 2.644 1.034 3.718.688 1.075 1.62 1.612 2.793 1.612.84 0 1.593-.287 2.26-.86.472-.395.93-1.11 1.375-2.146l.37.18zm7.435-7.642c1.78 0 3.21.676 4.29 2.03.916 1.154 1.374 2.48 1.374 3.98 0 1.053-.253 2.118-.758 3.197-.506 1.08-1.2 1.893-2.087 2.44-.887.548-1.873.82-2.96.82-1.772 0-3.182-.705-4.226-2.118a6.575 6.575 0 0 1-1.322-4.007c0-1.078.268-2.15.803-3.217s1.24-1.854 2.114-2.363a5.449 5.449 0 0 1 2.774-.762zm-.397.835c-.453 0-.91.135-1.367.404s-.828.743-1.11 1.42c-.283.676-.425 1.545-.425 2.606 0 1.712.34 3.19 1.02 4.43s1.578 1.863 2.69 1.863c.83 0 1.517-.343 2.056-1.028.54-.685.81-1.86.81-3.53 0-2.09-.45-3.733-1.35-4.933-.607-.822-1.382-1.232-2.323-1.232zm11.289 1.669c.855-.855 1.36-1.35 1.515-1.477.386-.325.8-.578 1.246-.758s.887-.27 1.324-.27c.736 0 1.37.214 1.9.642.53.428.886 1.048 1.065 1.86.88-1.026 1.626-1.7 2.234-2.02a3.953 3.953 0 0 1 1.875-.482c.624 0 1.178.16 1.662.48.483.322.866.847 1.15 1.574.187.496.28 1.275.28 2.337v5.06c0 .736.057 1.24.168 1.516.086.188.244.35.476.48.23.134.607.2 1.13.2v.462h-5.805v-.462h.245c.505 0 .898-.1 1.18-.296.198-.137.34-.355.425-.655.034-.146.052-.56.052-1.245v-5.06c0-.958-.115-1.635-.347-2.028-.334-.548-.87-.822-1.605-.822-.454 0-.91.113-1.367.34-.46.228-1.013.65-1.663 1.266l-.026.14.026.554v5.612c0 .805.045 1.306.135 1.502.09.197.26.362.507.495s.672.198 1.27.198v.462h-5.945v-.462c.65 0 1.1-.077 1.342-.23.243-.155.412-.387.507-.694.043-.146.064-.57.064-1.27V21.76c0-.958-.14-1.647-.423-2.067-.377-.548-.903-.822-1.58-.822-.462 0-.92.126-1.374.374-.71.377-1.26.8-1.644 1.27v6.307c0 .772.052 1.272.16 1.503a1.1 1.1 0 0 0 .475.52c.21.116.636.175 1.277.175v.462h-5.817v-.462c.54 0 .916-.06 1.13-.174s.377-.3.488-.552c.11-.253.167-.743.167-1.47v-4.496c0-1.293-.04-2.128-.116-2.504-.06-.283-.153-.478-.282-.585-.128-.106-.304-.16-.526-.16-.24 0-.526.064-.86.192l-.192-.463 3.544-1.438h.553v2.502z" fill="#E66F66"/></svg>